<svg width="84" height="82" viewBox="0 0 84 82" fill="none" xmlns="http://www.w3.org/2000/svg">
<path fill-rule="evenodd" clip-rule="evenodd" d="M9.30218 66.1223C10.9871 67.6316 12.8594 69.1993 14.5862 70.9135C15.1901 71.5126 15.5522 72.2741 16.5553 71.9887C16.7614 71.9299 17.0717 71.8534 17.1257 71.7055C18.0404 69.197 19.9571 67.3458 21.3059 65.1268C22.2091 63.6406 22.8325 62.0255 22.5813 60.2129C22.5309 59.8511 22.201 59.5226 21.9999 59.1792C21.6725 59.382 21.2427 59.5095 21.0349 59.7991C19.5237 61.905 18.0355 64.0289 16.5887 66.1802C16.1348 66.8551 15.8158 66.7265 15.2603 66.2746C13.9783 65.2321 12.6163 64.2902 11.3221 63.2623C10.7686 62.8233 10.3023 62.2735 9.80152 61.7689C9.75971 61.7267 9.77924 61.6143 9.73616 61.5841C9.29156 61.2709 8.60398 60.6166 8.4348 60.7288C7.9462 61.0521 7.50884 61.6338 7.33304 62.2059C6.78984 63.9739 8.29714 64.8481 9.30218 66.1223Z" fill="#272727"/>
<path fill-rule="evenodd" clip-rule="evenodd" d="M28.1196 36.6296C28.0837 36.532 28.048 36.4337 28.0121 36.3361L31.0294 35.5631C31.0606 35.6795 31.0914 35.796 31.1224 35.9121C30.1217 36.1512 29.1202 36.3905 28.1196 36.6296ZM44.9679 23.4702C44.9464 23.3917 44.9248 23.3132 44.9033 23.2347C46.4476 22.6704 47.9921 22.1064 49.537 21.5421C49.5786 21.6539 49.62 21.7659 49.6614 21.8774C48.097 22.4084 46.5323 22.9392 44.9679 23.4702ZM40.6041 39.9353C41.2301 40.9053 41.8753 41.8638 42.4761 42.8492C42.8473 43.4578 42.6525 43.8947 42.0373 44.2636C40.1096 45.4185 37.5827 45.1077 35.8281 43.532C33.9153 41.8147 33.8951 39.6614 34.2609 37.4201C34.2894 37.2447 34.798 37.0219 35.0693 37.0427C37.3034 37.2158 39.0178 38.3984 40.6041 39.9353ZM39.7648 28.6343C44.0017 24.335 49.2799 22.5382 55.2138 22.2018C61.9691 21.8188 68.5429 22.9355 75.0482 24.7056C77.0184 25.2417 78.9763 25.8287 80.9573 26.3167C81.4886 26.4481 82.1629 26.4566 82.6253 26.2292C82.9444 26.0724 83.0122 25.4134 83.1918 24.9784C82.92 24.883 82.6512 24.7739 82.3751 24.6945C81.6309 24.481 80.8607 24.34 80.1414 24.0626C77.8 23.1601 75.4915 22.1698 73.1419 21.2917C71.5582 20.6998 69.9434 20.1741 68.3109 19.7458C67.2797 19.4754 66.1798 19.493 65.1285 19.2857C63.4622 18.9575 61.8252 18.3886 60.149 18.2127C57.5399 17.9381 54.891 17.6695 52.2896 17.8229C46.5388 18.1619 41.5921 20.3439 37.6079 24.6071C35.7538 26.5909 33.8425 28.4801 32.7091 31.0111C32.5853 31.2878 32.0783 31.5133 31.7287 31.5416C28.2063 31.8231 25.1061 33.1509 22.4397 35.3678C20.4442 37.0265 18.3715 38.6965 16.7977 40.7252C15.4772 42.4268 14.6625 44.5934 13.9303 46.6662C13.2798 48.5091 12.929 50.4878 12.6616 52.4391C12.2812 55.219 12.7301 57.9602 13.7826 60.5748C13.9337 60.9502 14.597 61.2825 15.0555 61.3383C15.5652 61.4007 15.7776 60.9393 16.0007 60.394C16.6987 58.6869 16.1025 57.0631 15.824 55.4361C15.2956 52.3538 16.0498 49.5281 17.5588 46.979C20.1331 42.6295 24.0507 39.7395 28.6408 37.7703C31.1206 36.7071 31.1749 36.8008 31.0978 39.4087C30.9961 42.8409 32.0063 45.87 34.5369 48.2804C37.4742 51.0779 41.8434 50.8697 44.5474 47.9083C45.3961 46.9785 45.4832 45.8256 45.53 44.6792C45.6361 42.075 44.8339 39.707 43.3285 37.5824C41.7717 35.3843 40.0058 33.412 37.3741 32.4477C36.7387 32.2147 36.7686 31.8228 37.2072 31.3679C38.0731 30.4695 38.9136 29.5468 39.7648 28.6343Z" fill="#272727"/>
</svg>
